Coordinates
version=1
nRows=18
nColumns=22
inDegrees=yes

Units are S.I. units (second, meters, Newtons, ...)
If the header above contains a line with 'inDegrees', this indicates whether rotational values are in degrees (yes) or radians (no).

endheader
time	pelvis_tilt	pelvis_list	pelvis_rotation	pelvis_tx	pelvis_ty	pelvis_tz	hip_flexion_r	hip_adduction_r	hip_rotation_r	knee_angle_r	ankle_angle_r	subtalar_angle_r	hip_flexion_l	hip_adduction_l	hip_rotation_l	knee_angle_l	ankle_angle_l	subtalar_angle_l	lumbar_extension	lumbar_bending	lumbar_rotation
      3.15000000	      0.92994722	      0.90845717	    184.41859620	      0.19024699	      0.91681395	     -0.60454188	     26.93947437	     -6.54747298	      4.76370441	    -67.20291551	      0.44390542	      7.68198357	     11.74631588	     12.44415394	      0.79924350	    -23.24573545	     11.09720716	    -16.26774626	     -6.32698069	     -4.76758082	     -6.30205794
      3.16000000	      0.80626446	      1.01319395	    185.81890177	      0.18228177	      0.91787542	     -0.60180984	     27.54114800	     -6.59677436	      5.08860311	    -65.49314937	      1.36791470	      6.87385448	     10.52716785	     12.57492758	      2.23956653	    -22.57539383	     11.15471743	    -16.24522466	     -6.41192872	     -4.59887102	     -7.00900011
      3.17000000	      0.68391632	      1.14589740	    187.24458836	      0.17435092	      0.91887462	     -0.59906709	     28.01478701	     -6.62905839	      5.30286378	    -63.53527972	      2.21083389	      6.07404892	      9.33746843	     12.62997448	      3.73184366	    -21.95905099	     11.24752662	    -16.22613050	     -6.48400275	     -4.41922351	     -7.70996895
      3.18000000	      0.55493847	      1.30323853	    188.68999862	      0.16642371	      0.91981388	     -0.59629332	     28.35366180	     -6.64947385	      5.38713822	    -61.33840957	      2.97014028	      5.29794093	      8.16291502	     12.61101106	      5.25418689	    -21.38252086	     11.37319441	    -16.21772292	     -6.54503488	     -4.22911185	     -8.39361731
      3.19000000	      0.42843208	      1.48936764	    190.16803656	      0.15853378	      0.92067018	     -0.59347993	     28.57583678	     -6.64652671	      5.33601468	    -58.92275737	      3.60450292	      4.66428257	      7.02397790	     12.51687828	      6.82249353	    -20.85384523	     11.49430227	    -16.21760307	     -6.59065981	     -4.02434797	     -9.08663052
      3.20000000	      0.29878347	      1.69515379	    191.65866795	      0.15067079	      0.92143484	     -0.59062659	     28.68524651	     -6.61271858	      5.17085474	    -56.30374272	      4.12726104	      4.16397292	      5.91078073	     12.35403212	      8.40101866	    -20.35974593	     11.62550614	    -16.22161211	     -6.62542615	     -3.81008105	     -9.76615612
      3.21000000	      0.17485107	      1.91057600	    193.15187037	      0.14284671	      0.92207026	     -0.58776379	     28.70673345	     -6.54206955	      4.92045530	    -53.51086664	      4.54278750	      3.83176724	      4.83926564	     12.13252495	      9.96532248	    -19.90323335	     11.77859080	    -16.22136269	     -6.64432265	     -3.60352860	    -10.43450733
      3.22000000	      0.05013190	      2.12713168	    194.63096115	      0.13502935	      0.92257968	     -0.58490400	     28.64324730	     -6.42769409	      4.60816825	    -50.56363626	      4.85320619	      3.68028020	      3.79089068	     11.85685858	     11.48552395	    -19.46027566	     11.95366533	    -16.21318191	     -6.65285655	     -3.41403017	    -11.06479470
      3.23000000	     -0.06383545	      2.33713505	    196.07445042	      0.12722279	      0.92293062	     -0.58208232	     28.52443860	     -6.25903820	      4.28676955	    -47.48934383	      5.05572624	      3.74895314	      2.77805152	     11.53755581	     12.93878926	    -19.02618406	     12.14986659	    -16.18982803	     -6.64466884	     -3.25260817	    -11.65737825
      3.24000000	     -0.17001158	      2.53231466	    197.45508587	      0.11940542	      0.92312287	     -0.57933798	     28.35924202	     -6.02297108	      4.01594642	    -44.31158074	      5.15920137	      4.04730050	      1.79031510	     11.18320702	     14.30233385	    -18.58719792	     12.35809354	    -16.14834641	     -6.62881300	     -3.13039051	    -12.18857114
      3.25000000	     -0.26025217	      2.71188811	    198.75130916	      0.11154764	      0.92313403	     -0.57669325	     28.17106279	     -5.71566670	      3.83579237	    -41.06024205	      5.17109665	      4.57992399	      0.82375813	     10.79764079	     15.55570069	    -18.11922501	     12.60020739	    -16.08675520	     -6.59504724	     -3.04973060	    -12.64463833
      3.26000000	     -0.33358906	      2.87702074	    199.94754482	      0.10364487	      0.92295834	     -0.57416511	     27.96995862	     -5.33356601	      3.78772786	    -37.75557042	      5.10924090	      5.33368037	     -0.11859108	     10.38672949	     16.69175192	    -17.62593785	     12.86331980	    -16.00711834	     -6.54775682	     -3.00928039	    -13.01133050
      3.27000000	     -0.38873158	      3.02943891	    201.03037889	      0.09567319	      0.92259255	     -0.57175935	     27.76130246	     -4.88183424	      3.89675606	    -34.41021523	      4.99790373	      6.27724928	     -1.04059209	      9.95512611	     17.69808375	    -17.10034555	     13.15043194	    -15.91562806	     -6.48521157	     -3.00566530	    -13.28742266
      3.28000000	     -0.43766778	      3.16782916	    201.99881730	      0.08759757	      0.92205960	     -0.56945256	     27.52485919	     -4.37365696	      4.16746232	    -31.02501904	      4.87246521	      7.38083422	     -1.96446639	      9.50421104	     18.56384261	    -16.53197873	     13.45262666	    -15.82175147	     -6.41884525	     -3.03081837	    -13.48936186
      3.29000000	     -0.48896171	      3.28566877	    202.85559052	      0.07941030	      0.92136768	     -0.56721589	     27.24450170	     -3.83250551	      4.59549453	    -27.60358893	      4.75267584	      8.60628886	     -2.90316332	      9.04761864	     19.30450884	    -15.93131714	     13.77270249	    -15.73770246	     -6.36365962	     -3.08407733	    -13.59990854
      3.30000000	     -0.55885672	      3.37016077	    203.60627360	      0.07107456	      0.92054243	     -0.56500610	     26.88811737	     -3.28691904	      5.15846135	    -24.14636885	      4.65966231	      9.92194863	     -3.88435616	      8.59741503	     19.92020567	    -15.30105542	     14.09571886	    -15.67619988	     -6.33779817	     -3.16633420	    -13.64022033
      3.31000000	     -0.64818496	      3.41404428	    204.26432919	      0.06258319	      0.91957921	     -0.56277218	     26.45242288	     -2.76917641	      5.81051042	    -20.67913525	      4.58778874	     11.26860209	     -4.91954459	      8.16520261	     20.42643975	    -14.63723681	     14.41970465	    -15.64607760	     -6.34494803	     -3.27668281	    -13.62045854
      3.32000000	     -0.76048188	      3.40445089	    204.83920340	      0.05392103	      0.91847498	     -0.56046851	     25.94602173	     -2.30885225	      6.48632885	    -17.26559055	      4.54076766	     12.62021259	     -6.02568393	      7.76699341	     20.85013660	    -13.93761890	     14.72641934	    -15.65403179	     -6.39321537	     -3.42098917	    -13.55191217
